<?xml version="1.0" standalone="no"?>
<!DOCTYPE svg PUBLIC "-//W3C//DTD SVG 20010904//EN"
 "http://www.w3.org/TR/2001/REC-SVG-20010904/DTD/svg10.dtd">
<svg version="1.0" xmlns="http://www.w3.org/2000/svg"
 width="512.000000pt" height="512.000000pt" viewBox="0 0 512.000000 512.000000"
 preserveAspectRatio="xMidYMid meet">

<g transform="translate(0.000000,512.000000) scale(0.100000,-0.100000)"
fill="#000000" stroke="none">
<path d="M404 4595 c-147 -32 -278 -134 -344 -269 -22 -44 -45 -105 -50 -135
-15 -78 -13 -617 2 -644 26 -50 87 -62 129 -28 l24 19 6 314 c6 342 8 354 69
443 17 24 51 58 76 75 90 63 60 61 849 58 l720 -3 55 -29 c41 -21 134 -107
365 -336 322 -319 346 -339 464 -374 48 -14 155 -16 946 -16 601 0 911 -4 950
-11 149 -27 249 -129 275 -279 8 -46 10 -411 8 -1245 -3 -1086 -4 -1183 -20
-1223 -40 -99 -116 -174 -209 -207 -63 -22 -4255 -22 -4318 0 -93 33 -169 108
-209 207 -16 39 -17 140 -22 1211 l-5 1169 -25 20 c-32 26 -87 18 -117 -17
l-23 -26 0 -1143 c0 -732 4 -1163 10 -1197 38 -200 211 -371 414 -408 42 -8
679 -11 2140 -11 2281 0 2151 -3 2277 60 81 42 177 137 218 218 64 127 62 68
59 1420 l-3 1227 -23 59 c-61 162 -195 285 -356 328 l-46 12 0 109 c0 134 -12
175 -67 237 -83 92 17 85 -1207 88 l-1080 2 -125 123 c-140 136 -207 179 -318
202 -95 20 -1396 20 -1489 0z m4092 -528 c22 -26 24 -37 24 -128 l0 -99 -847
2 -848 3 -59 28 c-41 19 -88 55 -152 119 -52 50 -94 95 -94 100 0 5 439 7 976
6 l976 -3 24 -28z"/>
<path d="M2480 3243 c-452 -39 -833 -336 -974 -758 -44 -132 -59 -242 -53
-395 11 -280 110 -516 301 -718 441 -466 1171 -466 1612 0 188 199 289 437
301 709 11 253 -49 469 -189 676 -164 244 -452 430 -730 472 -82 12 -211 19
-268 14z m182 -933 c141 -98 233 -167 233 -177 0 -18 -472 -346 -489 -340 -8
3 -12 110 -14 340 -2 327 -2 337 17 337 11 0 124 -72 253 -160z"/>
</g>
</svg>
